<mxfile host="Electron" agent="Mozilla/5.0 (Windows NT 10.0; Win64; x64) AppleWebKit/537.36 (KHTML, like Gecko) draw.io/24.7.5 Chrome/126.0.6478.183 Electron/31.3.0 Safari/537.36" version="24.7.5">
  <diagram name="Page-1" id="4TY4dH5N0e36EhdvmAeG">
    <mxGraphModel dx="1105" dy="552" grid="1" gridSize="10" guides="1" tooltips="1" connect="1" arrows="1" fold="1" page="1" pageScale="1" pageWidth="850" pageHeight="1100" math="0" shadow="0">
      <root>
        <mxCell id="0" />
        <mxCell id="1" parent="0" />
        <mxCell id="DEQFoGet6QQZDROljbOK-1" value="&lt;div&gt;// actions.js&lt;/div&gt;&lt;div&gt;export const increment = () =&amp;gt; ({&lt;/div&gt;&lt;div&gt;&amp;nbsp; type: &#39;INCREMENT&#39;,&lt;/div&gt;&lt;div&gt;});&lt;/div&gt;&lt;div&gt;&lt;br&gt;&lt;/div&gt;&lt;div&gt;export const decrement = () =&amp;gt; ({&lt;/div&gt;&lt;div&gt;&amp;nbsp; type: &#39;DECREMENT&#39;,&lt;/div&gt;&lt;div&gt;});&lt;/div&gt;&lt;div&gt;&lt;br&gt;&lt;/div&gt;" style="text;html=1;align=left;verticalAlign=middle;whiteSpace=wrap;rounded=0;" parent="1" vertex="1">
          <mxGeometry x="150" y="50" width="200" height="140" as="geometry" />
        </mxCell>
        <mxCell id="DEQFoGet6QQZDROljbOK-3" value="&lt;div&gt;// reducer.js&lt;/div&gt;&lt;div&gt;const initialState = {&lt;/div&gt;&lt;div&gt;&amp;nbsp; count: 0,&lt;/div&gt;&lt;div&gt;};&lt;/div&gt;&lt;div&gt;&lt;br&gt;&lt;/div&gt;&lt;div&gt;const counterReducer = (state = initialState, action) =&amp;gt; {&lt;/div&gt;&lt;div&gt;&amp;nbsp; switch (action.type) {&lt;/div&gt;&lt;div&gt;&amp;nbsp; &amp;nbsp; case &#39;INCREMENT&#39;:&lt;/div&gt;&lt;div&gt;&amp;nbsp; &amp;nbsp; &amp;nbsp; return { ...state, count: state.count + 1 };&lt;/div&gt;&lt;div&gt;&amp;nbsp; &amp;nbsp; case &#39;DECREMENT&#39;:&lt;/div&gt;&lt;div&gt;&amp;nbsp; &amp;nbsp; &amp;nbsp; return { ...state, count: state.count - 1 };&lt;/div&gt;&lt;div&gt;&amp;nbsp; &amp;nbsp; default:&lt;/div&gt;&lt;div&gt;&amp;nbsp; &amp;nbsp; &amp;nbsp; return state;&lt;/div&gt;&lt;div&gt;&amp;nbsp; }&lt;/div&gt;&lt;div&gt;};&lt;/div&gt;&lt;div&gt;&lt;br&gt;&lt;/div&gt;&lt;div&gt;export default counterReducer;&lt;/div&gt;&lt;div&gt;&lt;br&gt;&lt;/div&gt;" style="text;html=1;align=left;verticalAlign=middle;whiteSpace=wrap;rounded=0;" parent="1" vertex="1">
          <mxGeometry x="150" y="200" width="300" height="250" as="geometry" />
        </mxCell>
        <mxCell id="DEQFoGet6QQZDROljbOK-4" value="&lt;div&gt;// store.js&lt;/div&gt;&lt;div&gt;import { createStore } from &#39;redux&#39;;&lt;/div&gt;&lt;div&gt;import counterReducer from &#39;./reducer&#39;;&lt;/div&gt;&lt;div&gt;&lt;br&gt;&lt;/div&gt;&lt;div&gt;const store = createStore(counterReducer);&lt;/div&gt;&lt;div&gt;&lt;br&gt;&lt;/div&gt;&lt;div&gt;export default store;&lt;/div&gt;&lt;div&gt;&lt;br&gt;&lt;/div&gt;" style="text;html=1;align=left;verticalAlign=middle;whiteSpace=wrap;rounded=0;" parent="1" vertex="1">
          <mxGeometry x="150" y="470" width="240" height="120" as="geometry" />
        </mxCell>
        <mxCell id="DEQFoGet6QQZDROljbOK-5" value="&lt;div&gt;// App.js&lt;/div&gt;&lt;div&gt;import React from &#39;react&#39;;&lt;/div&gt;&lt;div&gt;import { Provider } from &#39;react-redux&#39;;&lt;/div&gt;&lt;div&gt;import store from &#39;./store&#39;;&lt;/div&gt;&lt;div&gt;import Counter from &#39;./Counter&#39;;&lt;/div&gt;&lt;div&gt;&lt;br&gt;&lt;/div&gt;&lt;div&gt;function App() {&lt;/div&gt;&lt;div&gt;&amp;nbsp; return (&lt;/div&gt;&lt;div&gt;&amp;nbsp; &amp;nbsp; &amp;lt;Provider store={store}&amp;gt;&lt;/div&gt;&lt;div&gt;&amp;nbsp; &amp;nbsp; &amp;nbsp; &amp;lt;Counter /&amp;gt;&lt;/div&gt;&lt;div&gt;&amp;nbsp; &amp;nbsp; &amp;lt;/Provider&amp;gt;&lt;/div&gt;&lt;div&gt;&amp;nbsp; );&lt;/div&gt;&lt;div&gt;}&lt;/div&gt;&lt;div&gt;&lt;br&gt;&lt;/div&gt;&lt;div&gt;export default App;&lt;/div&gt;&lt;div&gt;&lt;br&gt;&lt;/div&gt;" style="text;html=1;align=left;verticalAlign=middle;whiteSpace=wrap;rounded=0;" parent="1" vertex="1">
          <mxGeometry x="150" y="590" width="310" height="250" as="geometry" />
        </mxCell>
        <mxCell id="DEQFoGet6QQZDROljbOK-6" value="&lt;div&gt;// Counter.js&lt;/div&gt;&lt;div&gt;import React from &#39;react&#39;;&lt;/div&gt;&lt;div&gt;import { useSelector, useDispatch } from &#39;react-redux&#39;;&lt;/div&gt;&lt;div&gt;import { increment, decrement } from &#39;./actions&#39;;&lt;/div&gt;&lt;div&gt;&lt;br&gt;&lt;/div&gt;&lt;div&gt;const Counter = () =&amp;gt; {&lt;/div&gt;&lt;div&gt;&amp;nbsp; const count = useSelector(state =&amp;gt; state.count);&lt;/div&gt;&lt;div&gt;&amp;nbsp; const dispatch = useDispatch();&lt;/div&gt;&lt;div&gt;&lt;br&gt;&lt;/div&gt;&lt;div&gt;&amp;nbsp; return (&lt;/div&gt;&lt;div&gt;&amp;nbsp; &amp;nbsp; &amp;lt;div&amp;gt;&lt;/div&gt;&lt;div&gt;&amp;nbsp; &amp;nbsp; &amp;nbsp; &amp;lt;h1&amp;gt;{count}&amp;lt;/h1&amp;gt;&lt;/div&gt;&lt;div&gt;&amp;nbsp; &amp;nbsp; &amp;nbsp; &amp;lt;button onClick={() =&amp;gt; dispatch(increment())}&amp;gt;Increment&amp;lt;/button&amp;gt;&lt;/div&gt;&lt;div&gt;&amp;nbsp; &amp;nbsp; &amp;nbsp; &amp;lt;button onClick={() =&amp;gt; dispatch(decrement())}&amp;gt;Decrement&amp;lt;/button&amp;gt;&lt;/div&gt;&lt;div&gt;&amp;nbsp; &amp;nbsp; &amp;lt;/div&amp;gt;&lt;/div&gt;&lt;div&gt;&amp;nbsp; );&lt;/div&gt;&lt;div&gt;};&lt;/div&gt;&lt;div&gt;&lt;br&gt;&lt;/div&gt;&lt;div&gt;export default Counter;&lt;/div&gt;&lt;div&gt;&lt;br&gt;&lt;/div&gt;" style="text;html=1;align=left;verticalAlign=middle;whiteSpace=wrap;rounded=0;" parent="1" vertex="1">
          <mxGeometry x="440" y="395" width="390" height="310" as="geometry" />
        </mxCell>
        <mxCell id="DEQFoGet6QQZDROljbOK-7" value="" style="shape=waypoint;sketch=0;fillStyle=solid;size=6;pointerEvents=1;points=[];fillColor=none;resizable=0;rotatable=0;perimeter=centerPerimeter;snapToPoint=1;" parent="1" vertex="1">
          <mxGeometry x="640" y="480" width="20" height="20" as="geometry" />
        </mxCell>
        <mxCell id="DEQFoGet6QQZDROljbOK-8" value="" style="edgeStyle=elbowEdgeStyle;elbow=horizontal;endArrow=classic;html=1;curved=0;rounded=0;endSize=8;startSize=8;entryX=0.284;entryY=0.455;entryDx=0;entryDy=0;entryPerimeter=0;exitX=0.874;exitY=0.547;exitDx=0;exitDy=0;exitPerimeter=0;fillColor=#1ba1e2;strokeColor=#006EAF;" parent="1" source="DEQFoGet6QQZDROljbOK-10" target="DEQFoGet6QQZDROljbOK-7" edge="1">
          <mxGeometry width="50" height="50" relative="1" as="geometry">
            <mxPoint x="450" y="520" as="sourcePoint" />
            <mxPoint x="500" y="470" as="targetPoint" />
            <Array as="points">
              <mxPoint x="390" y="450" />
              <mxPoint x="390" y="440" />
            </Array>
          </mxGeometry>
        </mxCell>
        <mxCell id="DEQFoGet6QQZDROljbOK-10" value="" style="shape=waypoint;sketch=0;fillStyle=solid;size=6;pointerEvents=1;points=[];fillColor=none;resizable=0;rotatable=0;perimeter=centerPerimeter;snapToPoint=1;" parent="1" vertex="1">
          <mxGeometry x="250" y="700" width="20" height="20" as="geometry" />
        </mxCell>
        <mxCell id="DEQFoGet6QQZDROljbOK-11" value="" style="shape=waypoint;sketch=0;fillStyle=solid;size=6;pointerEvents=1;points=[];fillColor=none;resizable=0;rotatable=0;perimeter=centerPerimeter;snapToPoint=1;" parent="1" vertex="1">
          <mxGeometry x="230" y="730" width="20" height="20" as="geometry" />
        </mxCell>
        <mxCell id="DEQFoGet6QQZDROljbOK-12" value="" style="shape=waypoint;sketch=0;fillStyle=solid;size=6;pointerEvents=1;points=[];fillColor=none;resizable=0;rotatable=0;perimeter=centerPerimeter;snapToPoint=1;" parent="1" vertex="1">
          <mxGeometry x="530" y="680" width="20" height="20" as="geometry" />
        </mxCell>
        <mxCell id="DEQFoGet6QQZDROljbOK-13" value="" style="edgeStyle=segmentEdgeStyle;endArrow=classic;html=1;curved=0;rounded=0;endSize=8;startSize=8;exitX=0.75;exitY=0.942;exitDx=0;exitDy=0;exitPerimeter=0;fillColor=#e3c800;strokeColor=#B09500;" parent="1" source="DEQFoGet6QQZDROljbOK-12" target="DEQFoGet6QQZDROljbOK-11" edge="1">
          <mxGeometry width="50" height="50" relative="1" as="geometry">
            <mxPoint x="340" y="780" as="sourcePoint" />
            <mxPoint x="640" y="730" as="targetPoint" />
            <Array as="points">
              <mxPoint x="540" y="770" />
              <mxPoint x="240" y="770" />
            </Array>
          </mxGeometry>
        </mxCell>
        <mxCell id="DEQFoGet6QQZDROljbOK-15" value="" style="shape=waypoint;sketch=0;fillStyle=solid;size=6;pointerEvents=1;points=[];fillColor=none;resizable=0;rotatable=0;perimeter=centerPerimeter;snapToPoint=1;" parent="1" vertex="1">
          <mxGeometry x="250" y="410" width="20" height="20" as="geometry" />
        </mxCell>
        <mxCell id="DEQFoGet6QQZDROljbOK-16" value="" style="shape=waypoint;sketch=0;fillStyle=solid;size=6;pointerEvents=1;points=[];fillColor=none;resizable=0;rotatable=0;perimeter=centerPerimeter;snapToPoint=1;" parent="1" vertex="1">
          <mxGeometry x="330" y="540" width="20" height="20" as="geometry" />
        </mxCell>
        <mxCell id="DEQFoGet6QQZDROljbOK-17" value="" style="edgeStyle=segmentEdgeStyle;endArrow=classic;html=1;curved=0;rounded=0;endSize=8;startSize=8;entryX=0.683;entryY=0.875;entryDx=0;entryDy=0;entryPerimeter=0;exitX=0.85;exitY=0.742;exitDx=0;exitDy=0;exitPerimeter=0;fillColor=#60a917;strokeColor=#2D7600;" parent="1" source="DEQFoGet6QQZDROljbOK-15" target="DEQFoGet6QQZDROljbOK-16" edge="1">
          <mxGeometry width="50" height="50" relative="1" as="geometry">
            <mxPoint x="440" y="640" as="sourcePoint" />
            <mxPoint x="490" y="590" as="targetPoint" />
            <Array as="points">
              <mxPoint x="400" y="420" />
              <mxPoint x="400" y="550" />
            </Array>
          </mxGeometry>
        </mxCell>
        <mxCell id="DEQFoGet6QQZDROljbOK-18" value="" style="shape=waypoint;sketch=0;fillStyle=solid;size=6;pointerEvents=1;points=[];fillColor=none;resizable=0;rotatable=0;perimeter=centerPerimeter;snapToPoint=1;" parent="1" vertex="1">
          <mxGeometry x="230" y="570" width="20" height="20" as="geometry" />
        </mxCell>
        <mxCell id="DEQFoGet6QQZDROljbOK-19" value="" style="shape=waypoint;sketch=0;fillStyle=solid;size=6;pointerEvents=1;points=[];fillColor=none;resizable=0;rotatable=0;perimeter=centerPerimeter;snapToPoint=1;" parent="1" vertex="1">
          <mxGeometry x="260" y="700" width="20" height="20" as="geometry" />
        </mxCell>
        <mxCell id="DEQFoGet6QQZDROljbOK-20" value="" style="edgeStyle=segmentEdgeStyle;endArrow=classic;html=1;curved=0;rounded=0;endSize=8;startSize=8;exitX=0.817;exitY=0.708;exitDx=0;exitDy=0;exitPerimeter=0;fillColor=#0050ef;strokeColor=#001DBC;" parent="1" source="DEQFoGet6QQZDROljbOK-18" target="DEQFoGet6QQZDROljbOK-19" edge="1">
          <mxGeometry width="50" height="50" relative="1" as="geometry">
            <mxPoint x="440" y="640" as="sourcePoint" />
            <mxPoint x="490" y="590" as="targetPoint" />
            <Array as="points">
              <mxPoint x="370" y="580" />
              <mxPoint x="370" y="710" />
            </Array>
          </mxGeometry>
        </mxCell>
        <mxCell id="DEQFoGet6QQZDROljbOK-21" value="" style="shape=waypoint;sketch=0;fillStyle=solid;size=6;pointerEvents=1;points=[];fillColor=none;resizable=0;rotatable=0;perimeter=centerPerimeter;snapToPoint=1;" parent="1" vertex="1">
          <mxGeometry x="340" y="130" width="20" height="20" as="geometry" />
        </mxCell>
        <mxCell id="DEQFoGet6QQZDROljbOK-22" value="" style="shape=waypoint;sketch=0;fillStyle=solid;size=6;pointerEvents=1;points=[];fillColor=none;resizable=0;rotatable=0;perimeter=centerPerimeter;snapToPoint=1;" parent="1" vertex="1">
          <mxGeometry x="330" y="70" width="20" height="20" as="geometry" />
        </mxCell>
        <mxCell id="DEQFoGet6QQZDROljbOK-23" value="" style="shape=waypoint;sketch=0;fillStyle=solid;size=6;pointerEvents=1;points=[];fillColor=none;resizable=0;rotatable=0;perimeter=centerPerimeter;snapToPoint=1;" parent="1" vertex="1">
          <mxGeometry x="490" y="460" width="20" height="20" as="geometry" />
        </mxCell>
        <mxCell id="DEQFoGet6QQZDROljbOK-24" value="" style="shape=waypoint;sketch=0;fillStyle=solid;size=6;pointerEvents=1;points=[];fillColor=none;resizable=0;rotatable=0;perimeter=centerPerimeter;snapToPoint=1;" parent="1" vertex="1">
          <mxGeometry x="570" y="460" width="20" height="20" as="geometry" />
        </mxCell>
        <mxCell id="DEQFoGet6QQZDROljbOK-25" value="" style="edgeStyle=segmentEdgeStyle;endArrow=classic;html=1;curved=0;rounded=0;endSize=8;startSize=8;entryX=0.983;entryY=0.375;entryDx=0;entryDy=0;entryPerimeter=0;exitX=0.783;exitY=0.542;exitDx=0;exitDy=0;exitPerimeter=0;fillColor=#f0a30a;strokeColor=#BD7000;" parent="1" source="DEQFoGet6QQZDROljbOK-21" target="DEQFoGet6QQZDROljbOK-24" edge="1">
          <mxGeometry width="50" height="50" relative="1" as="geometry">
            <mxPoint x="440" y="390" as="sourcePoint" />
            <mxPoint x="490" y="340" as="targetPoint" />
          </mxGeometry>
        </mxCell>
        <mxCell id="DEQFoGet6QQZDROljbOK-26" value="" style="edgeStyle=segmentEdgeStyle;endArrow=classic;html=1;curved=0;rounded=0;endSize=8;startSize=8;entryX=0.617;entryY=0.308;entryDx=0;entryDy=0;entryPerimeter=0;exitX=0.983;exitY=0.708;exitDx=0;exitDy=0;exitPerimeter=0;fillColor=#d80073;strokeColor=#A50040;" parent="1" source="DEQFoGet6QQZDROljbOK-22" target="DEQFoGet6QQZDROljbOK-23" edge="1">
          <mxGeometry width="50" height="50" relative="1" as="geometry">
            <mxPoint x="440" y="390" as="sourcePoint" />
            <mxPoint x="490" y="340" as="targetPoint" />
          </mxGeometry>
        </mxCell>
        <mxCell id="DEQFoGet6QQZDROljbOK-28" value="" style="shape=waypoint;sketch=0;fillStyle=solid;size=6;pointerEvents=1;points=[];fillColor=none;resizable=0;rotatable=0;perimeter=centerPerimeter;snapToPoint=1;" parent="1" vertex="1">
          <mxGeometry x="650" y="560" width="20" height="20" as="geometry" />
        </mxCell>
        <mxCell id="DEQFoGet6QQZDROljbOK-29" value="" style="shape=waypoint;sketch=0;fillStyle=solid;size=6;pointerEvents=1;points=[];fillColor=none;resizable=0;rotatable=0;perimeter=centerPerimeter;snapToPoint=1;" parent="1" vertex="1">
          <mxGeometry x="650" y="610" width="20" height="20" as="geometry" />
        </mxCell>
        <mxCell id="DEQFoGet6QQZDROljbOK-30" value="" style="shape=waypoint;sketch=0;fillStyle=solid;size=6;pointerEvents=1;points=[];fillColor=none;resizable=0;rotatable=0;perimeter=centerPerimeter;snapToPoint=1;" parent="1" vertex="1">
          <mxGeometry x="150" y="300" width="20" height="20" as="geometry" />
        </mxCell>
        <mxCell id="DEQFoGet6QQZDROljbOK-31" value="" style="shape=waypoint;sketch=0;fillStyle=solid;size=6;pointerEvents=1;points=[];fillColor=none;resizable=0;rotatable=0;perimeter=centerPerimeter;snapToPoint=1;" parent="1" vertex="1">
          <mxGeometry x="150" y="330" width="20" height="20" as="geometry" />
        </mxCell>
        <mxCell id="DEQFoGet6QQZDROljbOK-32" value="" style="edgeStyle=segmentEdgeStyle;endArrow=classic;html=1;curved=0;rounded=0;endSize=8;startSize=8;entryX=-0.012;entryY=0.447;entryDx=0;entryDy=0;entryPerimeter=0;fillColor=#e51400;strokeColor=#B20000;" parent="1" source="DEQFoGet6QQZDROljbOK-28" target="DEQFoGet6QQZDROljbOK-30" edge="1">
          <mxGeometry width="50" height="50" relative="1" as="geometry">
            <mxPoint x="250" y="500" as="sourcePoint" />
            <mxPoint x="300" y="450" as="targetPoint" />
            <Array as="points">
              <mxPoint x="90" y="570" />
              <mxPoint x="90" y="310" />
            </Array>
          </mxGeometry>
        </mxCell>
        <mxCell id="DEQFoGet6QQZDROljbOK-33" value="" style="edgeStyle=segmentEdgeStyle;endArrow=classic;html=1;curved=0;rounded=0;endSize=8;startSize=8;entryX=0.129;entryY=0.876;entryDx=0;entryDy=0;entryPerimeter=0;fillColor=#6d8764;strokeColor=#3A5431;" parent="1" source="DEQFoGet6QQZDROljbOK-29" target="DEQFoGet6QQZDROljbOK-31" edge="1">
          <mxGeometry width="50" height="50" relative="1" as="geometry">
            <mxPoint x="250" y="500" as="sourcePoint" />
            <mxPoint x="300" y="450" as="targetPoint" />
            <Array as="points">
              <mxPoint x="60" y="620" />
              <mxPoint x="60" y="340" />
            </Array>
          </mxGeometry>
        </mxCell>
        <mxCell id="DEQFoGet6QQZDROljbOK-34" value="" style="shape=image;verticalLabelPosition=bottom;labelBackgroundColor=default;verticalAlign=top;aspect=fixed;imageAspect=0;image=data:image/png,iVBORw0KGgoAAAANSUhEUgAAAQ8AAAEPCAYAAABcL0E+AAAgAElEQVR4Ae2dDXhU1bnvVzUKCkMxoBRCBMFHBEw6llur5aBXa2+LXxDkFLBYFTTeiqRQESQo6LkeiV8c1AIColz58ONoCQ9QAUVQAwdPqFESIJLGIC3hUSQBhQQu0v991uy99sfMnsnsPTPJfPx9Htl7Zq+99tpr/d/fete71mQJn88H/s86oAaoAbcaEG5vYHqKjBqgBqQGCA96XvQ8qQFPGiA8KBxPwqH3Qe+D8CA8CA9qwJMGCA8Kx5Nw6HnQ8yA8CA/CgxrwpAHCg8LxJBx6HvQ80gwe+SipBIAm7HpU0CgIRmoggRpIK3iI4aWoluw4uAYPiiwKJ4HCoedBzyOt4HHje4clOrB3Hr0OGjeNO9EaSCN4lGBTE4BjZZgjCI9EC4f5E06u4CGGXgvxwhSIlTNx1sqZEC/fB1F8GbIv6Bg0ROgN8eIs9FnwM3SVy1jHDIdYNCNwX8dlUyFmDcR52cH3yMY4D+K3wyFenGY+Y+FdaH9bp6D8QxtOLN4V8DqOrh/bYloKP7T+WCesE7caiBoeYvx4w6AlOKz/9yxqH2SwGjzOWvlbiIcnO97X8+Eetns6ZveGmPOQLV/zGb9H7s8ixTAm4a2vJTtq8c6v6HW4FQHTExxeNBAlPBQMfo/uvzwHnbK1yj77ooshim6DuC/Yi1DpdQ/l336MH+Zp94ihBQGYdF06FDkdzUYTRX8IgONHL49Fx1svMJ4hftwPYtZo9IgADzG7AsclOypK4D83uCzmM7xUEO9h/VEDzhqIEh79IZbMwlkrf4+cwWfaPAbnilXwmIquo9sFpVfXRiBXh0fHbD/E/5WgiTZ/68uo6dl6bLubXodze1jri+eso/hoIEp4+CDun6APP6ZDPP4vaPdL0zsIbYxQQISmMV9AXHdzIO/8py/DD11OLxrTszXLMDLrnCBQmc+I9HxeYz1RA+41EDU8ZOUGAp9Lii1xiemB4Ge4gOlZK03vIlLjiN+M1YYsk892bfycnnXf6JHagtdYn9FqwBU8VKaBOISMdQSGGjPRed6VgVkVdd3nc+l53DQy4HkMeryPK3gI/yvYeprTs2a9U/isi9bTgCd4qAYKzJC8qMVC7LMhLuEx4Bo9iHoruvc5N2qAiD8f0KZn194e9T2q7Dy2nshY1+lZ11HCww/x3FCcc9OF6JTTwTBU8eOBgfUcZ628Ez37W6dr3cEjsL7jyccCQ5eshcPR0RJPCT/bok/PnirHyj4MlNJA09NAk7ldo4TH/9CDpfb1HWodRtd/yw0KdLqFhw9ZfQdBvCK9GKdnhK7zMKZny6YaMEvmimbZaNzppoEo4eGD+J8/h3j2fojlyrinQywYF2b1p3t4yIo994JciOJ7IF5RQdlwzxiGuTVyxMLp2XQTJN8ndSAbNTySqVHFhM3YL9nB6Vl6XS6n9pNJx6lelpSEx4Tt3wf+ZkfV44x1pLoAWf7U8TSC2yol4RH8EvycugJk26Vu2xEedHs59KEGPGmA8KBwPAmHHkPqegzxajvCg/AgPKgBTxogPCgcT8KJV+/FfFLXgyE8CA/CgxrwpAHCg8LxJBx6DKnrMcSr7QgPwoPwoAY8aYDwoHA8CSdevRfzSV0PhvAgPAgPasCTBggPCseTcOgxpK7HEK+2IzwID8KDGvCkAcKDwvEknHj1XswndT0YwoPwIDyoAU8aIDwoHE/CoceQuh5DvNqO8CA8CA9qwJMGkgger+MT+dfB9iz09CLxoinzYY9KDUSnAcKDvQ5hTQ140gDhQeF4Eg575+h653SuJ8KD8CA8qAFPGiA80lQ4YvRr+Ow4gFPN+HzJlZ7EkYq9Zo+u16M8vxh1vYfhMXFGxrx3W7QV4ZGu8FhZG9iKM/BPBgWhi3tNR51f+3+HyCI8EqhvwiOBlRuv3kDMXofawyeAyuhnouh50POIl/7C5UN4pAI8lBeRQR5EOMHy++QJ1BIehAdd+xTQQDJCk/CIUTgX3TQTCz+sQf2RE2aMobkRh/+6Ao/0D7ej3dUY90aV/Z7Gg6heMQHXtu8QMGahvA0zV8ezk5uLLMY/C2u+DU22f2m4csheLB/3vlSGSjksUv81N6J2y59Cyq/KJJ8pHliF8gMn1R04+c1urC3qaimL6iHzUTB/U0j+sn5m/DxSudT94Y8dulyPnYPMGIeKdWjHW8MGTHM6D8RLPe9B9aX6vQMmY2f2r1HCGIlD+4Wvf8IjRnhoG24bNmQ/ObgGDwYJUvhn4e160+jsNzRgxxTNoJSh2q+HfooNHqNQUnksNFP1zaGNePxS08BVmb7fV4dvVBrrsbkcr1xsppe95fC1h60pbOf2socXabhe1ws8Op43BB/5i42gqg045w/GmDPauzKgcGXLhO+TDx42eakPx2DpF9WXEY5u01ehVNhFH23jv1D5HWq3LMGTY4fCf27HQE8+eOZfsDdQYBMGKr+7PpLzpwCa6/HZkikoyDszcM91Rc/itd2fo0yHh0ovj8po3S7dV88K53mIBbuhlaYBO+eN18tyNW5fVIZ/6BV+dP1Yw5iMcgReQLtHekr971uFT/X0Nc9Z61F5Qg2oerJAz9+HQaOeCHhrX2yYZORtfd/Yznvh1X4zUOd39jxG504IgKNSdMOQDpqX5+t0Pu7M/gXe73wV4eGiMyU8AobgHR7hhO5kuML/Craelg9sQPlDZ0VtOIbRugyYOpXBLO8wLK4LvDz2L70ipCziqQoNLI0b8YT4QeC6UQ6H8qtnHV1bYMlrLjY1uX9fs4zuvRGfLzI8Jub+UYdHe+R09JI/71Htk3zwcGkg6kXa6ij80zDnwxo0NGuGGPyvtdcXT+sGue9NjMw6x2JkkQVpGK3LulEGbS2DWU8v6iALB05l+Ob1SOVQzwoeiozbontaAI5Xb0Lp04WGB2KWJfL7u0sXGR5yqFN+uR7r6DISy0QvjGgXfVu4K0s83yv58iI8XLhpwcKR8Yu1DcG4sH+2Gq4yvmADC843+LO6L77DFv1XzBbPwv5cNeSIDR4yICuDwwdMhgQqqKlqecwBU3t5lXFFhoe8p0f2T1F64SR73KPLDQyYurQFwsNlhVkFK/58QCNFcy02PnKjMVMi06ie2AaPBbu19C49iITCAyYcrO/m88XH8zDzzIeM6yz/cC8On9IBe8gcEpnpFAS8HluGh3pWTqeemJh9HTb1nqaBJG8clniMfak8M+lIeMQADwWIUE/iasz6VLMQGzzu3Yz90m5O1eKd4dbAYmRDMeBRs0wPykZOrwSsymctg7rm8xXira81I947L7QsRjD14BrcL862xzwc4KeeFVoXoWWVHps2pRwaUDbLF3pfdNeih4c1vzuNQCqHMNZ6iXROeMQAj9+o8XxjGf70q77w+a7G9Y8tx0f7zalYu+GaQUo07sL6p9T4X+uVw862TN2mT41aZ0VaNi5l0PYymPfdvF6fRm2ux/b5dzvOtliDqQbEoobH6/jgq0+wef4s/O6GfnqMR77rEmw/KsFVj213hIJLCnZItwLszJuOugGFWO3KG4gMj8dyxmO16IO7sjoYAVPpgTyQe1/A+9jq6llmXUYysnS9RnjEAA9RrIxad8MthyP6orFgw5W/OVHTmpbk+mm4nniS4SUE32Pt6SOVR91nS++fhXW696GuW4//rFyE31rWPXiBR+Cvw1kztZzL/J0Dxz2xODDdqgU294mLow4utzTb8uhFD9tjHfqP6ALrPfry9zBuQEd4xAAPWdGDn9+KvwV6Uc0q5ErLLc/fZqzNCIaHvEdcMw1LKw7ZZmhOHrGvMA1uRHnPy3u+Q5OKF+hGaINBBJgpm7WmD5TFX4jZ79pni8KVxT088jHqyXUoP/Ctrdzh8re+c6I8j5zOfTGn+zjs7DfVhEjfQpSJPIzJ4gIxaxu0dE54xAiPliqY11vbte+FVwfMQF3eLWGXp7NN4tMmhAfh4WJIEB/Rxct4R3QvwGqRa67TkCtFu41F9eXTsU/0dxVcjleZMikfwoPwSFl4qKXmtt+nyBhG31EoYeAz4e1KeBAeCRdZonpj49exA/UVo/2KsKPdlZgS9GPERD0/0/MlPAiPlIVHphtvW78/4UF4EB7UgCcNJBE8kisY19ZU5/Oph2TXAOHBXsdTr5Pswmb5Eg9fwoPwIDyoAU8aIDwoHE/CYc+e+J492euY8CA8CA9qwJMGCA8Kx5Nwkr1XZPkS7xkRHoQH4UENeNIA4UHheBIOe/bE9+zJXseEB+FBeFADnjRAeFA4noST7L0iy5d4z4jwIDwID2rAkwaSCB76VgAOfx+TvUjiexHWMevYrQYID/Y6nnodt0Jj+vSDE+FBeBAe1IAnDRAeFI4n4dCTSD9Pwm2bEh6ER1rBo0fX61GeX4y63txGwS0M3KYnPFIUHi1t6ORWCOmSvriX/icJ/dOxg3+OMKEdA+FBeCRUYK0NJXoerTecIjwIj7SCR2vDKpOfR3gQHoRHimqgrcFFeMQkHH2398aNeEIMwLg3qlB/RN/Y8VQzmqqW45H+oRs59566CpWHT6gdIIHmRnyx4RnbvrBWYcj0ti0bZd76tpPW7SzdbwepXNyr9bJbytQYfvvL6MvvrX6s7x7pvEOX67FzkBnjsO/fcmvYHeOMLRsu1e8dMBk7s3+NEsZIXHUkhEc84IF6fPrZdyYMrGcVJbadywasqMVx63XL+enqhSEAiZRe3horPIR/Ft6uP2kphfU0dOPtSOUJLb8ODxf1EwkWwde8wKPjeUPwkb/Y3KfWutH1+YMxxrKxd/Dz+Fl1Ntox+eBh1a5xfgyWPtH4NvyJ2/RVKPW0w5gyDq0kTVVvYe69P4HPl4+C+bvwjfz6VDmW6nmL4aWolt8112P7/LtxbfsOgbSDZ67Ax4e1PPbOMz0VMWEz9ge+bsJXpcUYNUS7NmjUVDy/R3M9YoWHmrWRZfpsyRQU5J0ZKNN1Rc/itd2fo2yKpTwuy+/zuauf+BhnL7zabwbq/M6eh9plrlJ0w5AOsv598MltKrN/gfc7X0V4uOhMCY+AccYKjyZ8ueJfbR6GaThm3oM3SEI0oeYZ0yCVwYiZ2zTYVJQYrqMy7KPrxxrfqfTqWizwEP5XsPW0rIAGlD90Vsgz1LPU0W35zTqIrn7Uc2I7RobHxNw/BryOStEeOR3tPWlsz828vJIPHin1wzjVs5qAiCTAuTWadxHxX+P9h2H53zXD3mHp/VX+cYHH0xXaEGrfmxiZdU6L8HBXfmlM7upHvVtsx8jwkEOd8sv1WEeXkVgmepkbZbvodWMrY3qAhvCISTDujMOd8UXOOy7wWFkb4NjJzUUtgkMai7vyJyc85Hv0yP4pSi+cZI97dLmBAVOXtkB4uKwwe48T2cDtaZXxhQYhg9Npnx/C2gbd8/hD6DAnLvBYsFtzggxvJ3KPqMEj2vInLzxUfed06omJ2ddhU+9pGkjyxmGJp9hX5HpTz0u3I+HRivBQBu8Uw3AS1vN7NNu2xjVkOiM+EjzbUqzHTYKGIWL0a/hUjzhbvQxxrx6QPVWLd4aHAiq4TG7Ln4zDluB3Up/vzJ2gx0JaHr6pezL9SHi0IjzEbD3GgCbUb3kBk4deEnG4IP58QKPHsR34z0I/hP8W3P9GrRZY1a7Yp2oVDNCA//73a+A/Nx+DZ/4Fey1TVVZ4+HzDsLhOz6hxF9Y/VRh5tsVl+WOBx5BuBdiZNx11Awqx2pU3EDnm8VjOeKwWfXBXVgcjYCo9kAdy7wvAY6urZ2Wmx6GgSXi0IjzkFK7qvXWTDTrYhwTCPxebmoKSyI/NVViy5m+BC3avZBLe+tohPZrwZe1XgQt2ePhg9UpC77SXx235vcOjJxYHplu1wOY+cXFEyCoxa8fI8Hj0ooftsQ7rOo++/CWuvS4jw5HwaFV4yMbIx70vldlXmBpWG2ys0rgX4J39/89Icbx6HV4aIaBWk9rhodJ/a6THoV34YM6vjPTB8JBiEddMw9KKQ2hoNm87eSTcClM35XcXE7IKN1GeR07nvpjTfRx29ptqQqRvIcpEHsZktXcBqciGZX2XdD0nPGKCBwWUfIbRC68OmIG6vFvCLk9PvjKnpo4ID8IjZXvbEd0LsFrkmus05ErRbmNRffl07BP9gxbtpaaBJjPoCA/CI2XhoZaa238QNx11fUehhIHPhLcr4UF4JFxkieo9jV/HDtRXjPYrwo52V2IKfx3bKm1KeBAerSK0RAGE+bbdcIzwIDwID2rAkwaSCB5tR1D2Xqx7asC9BggP9jqeeh0am3tjS7c6IzwID8KDGvCkAcKDwvEknHTrRfk+7j0pwoPwIDyoAU8aIDwoHE/CYU/tvqdOtzojPAgPwoMa8KQBwoPC8SScdOtF+T7uPSnCg/AgPKgBTxogPCgcT8JhT+2+p063OiM8CA/CgxrwpAHCg8LxJJx060X5Pu49qSSCx+v4RP4VvCi3AWBju29s1hnrLJ4aIDzoedDzoAY8aYDwoHA8CSeePRjzSk2PiPAgPAgPasCTBggPCseTcLx6Cz26Xo/y/GLU9eYeKV7rMFnuIzwIj1aFR3Ev/e+N+qdjB//WaKvWfbyhQ3i0ATzE7HWoPXwCqFyY0uLxIkZ6HqkZ33Bqa8KjLeCxslbbmo3T0hkHTycjTNXvCA/CgwbcBhpIVWBYy014xCycfBTM32Tfe7a5EYf/ugIzfi4Mw1R7y5q7wTqfhe4l67A3bHMjarf8CY/0N/PXGlXfG7ZxI54QAzDujSrUH9Gfc6oZTVXLHe7xoffUVSHl/2LDM/jtGbHt3dqhy/XYOciMcdg3Z7o17HaQv+x6DTZdOAl1efq93EvW0JHVeNv6nPCIER7D1x52pgAAKwi8wWMUSiqPhc0fhzbi8UutAFEbS9fj08++c76vosS2DeOAFbU47pwSp6sXxgQQL/C4MecOcwNq6w72/umoFOckpRG1tRG31fOTDx6OQj6GE47fh/vSbfoqlHranlAZawOqnixAQd6ZAXEPGvUEFn5Ygy82THIUuwGSFmIeYsFu3bAbsHPeeD3/q3H7ojL8Q6+Qo+vHWp6hyqPVS1PVW5h770/g80nvaBe+kV+fKsdS/V3F8FJUy++a67F9/t24tn2HQNrBM1fgY52Je+dZ4RSPYF8vvNpvBur8Tp6HulaIN8UZ8HfsGHi3Pp364rELRuN98UPLu8ajLMwjFvAQHgE78wqPudjUJDNoQPlDZ0Ut7OjgMQyL6wKFw/6lV4TkLZ6q0MASGKL8QL+u4NGEL1f8q83D8PnUNfNdB2+QhGhCzTOhgBAzt2mwqSgJeXYsgvP5FCCc4NEPr18mwVKIZZ5gThjE1jbu6i/54NFCb9yalRPNs8ZtMZ3+49WbUPp0oeGBhLs/Oni8iK2nJTxMY7fnp8BlvR4KCPs9dnHMrdHgFPHfuLdHJHj4MLrnvdqwJW8qdrQbghJxvuGBRHoXXrO3bWvUB+ERY8xDDglkYPKAyZCALcrgpDVgam3M6OCh/8rY5llYBeIECqfvrPfYz5MRHrKeRlxwM8oumWbGPiRIxGUYkxVbANfaBjy3a8FLfRAeMcNDNUI+rit6Fss/3IvDp/S+/JCc9VBDCpXOB1fwSLjn0YAdU0KHLV7EFN09kT0Pax7+zpdg9vmjUX5ZsQaSLoMxJsYZIGv+PDc16aUuCI+4wcNsCOFXHoCzYRrwqFkWFJcw8/D5CvHW1xqEnIKWRjD14BrcL84OinlYhzLWPO3nd32kuUv2oKs9jRdRRb4nengY+XRS9zAWYtRJAnTrNm/CI6ZGeB0ffPUJNs+fhd/d0E83YOmBLMH2o9Lw67HtjtBeXUzVg5GwzqKEGu3N6/UpD302RJvNsc+22IOpClrRwUPM1oOuaEL9lhcweeglUQdHh3QrwE65DmNAIVa7Cm4qEDgFTPPxRp8bMF/kYkgHOfOj1Ym/8wC8cYkMpP4O8109K7ROVZ48xl43hEeM8Aj89TN9lBJ8+GflIozMclqbMMnwKoLvsa0N8c/COt37CE4nP8v87Qu53MFDxmuU9+GUv5xFch7S9MTiwHSrtohrn7jYMPSWjTISPC7HX36mD1GC1njIBWafi94RPLXYjaHlsvMZ1joiPGKCRz5GPbkO5Qe+RZOKc8jFYUcOonrFBH3dhLPgxDXT8PKe72z3SQO2wkM2lPAXYva7NWhoNs07fP5u4SHL5rCC1XhUOHj4kBjPw4dfnncVSi/836geqFamPojPe9yB1cKHPvq6D6uAee6sr9aoF8IjJni0XcO1hjgS84xeeHXADNTl3RJ2eXpinsu2ine9Eh6Eh4shhzsDHNG9AKtFLka004dunc7Hnd3Govry6dgn+nMIkuLaIzxSvAHj3ZvEM7/RuRPMtRrWGEbfUShh4DNh0I5nG0bKi/AgPBIm4pzOA/FSz3vM+EW/IuxodyWm8C+IJazOIxl7vK8RHoRHWgg53obB/FoeohIehAfhQQ140kASwaNl0rE3YB1RA8mjAcKDvY6nXodGnDxG3FZtQXgQHoQHNeBJA4QHheNJOG3V2/G5yePxEB6EB+FBDXjSAOFB4XgSDj2A5PEA2qotCA/Cg/CgBjxpgPCgcDwJp616Oz43eTwewoPwIDyoAU8aIDwoHE/CoQeQPB5AW7UF4UF4EB7UgCcNJBE89K0G4r5PCHuItuqZ+Nz01h7hwV7HU69DMKQ3GKJpX8KD8CA8qAFPGiA8KBxPwommZ2Ka9PZOCA/Cg/CgBjxpgPCgcDwJJ9O9CrF4l7ZBRdnUjK0/woPwSHnxi9nrUHv4BFC5sJXeZRgW10l21GPb3aE7AmYKWAkPwqOVDC5x439j799WmuYXEzZjv2RHxdyM3j6C8CA8CA+XGpiw/XsATdj1aOZ6HdK7IjxcCsfZJb0a496oQv2RE8ZGjWgMt+Wkw/aOzY2o3fInPNLfKkZt0ZzcfvKni3bhsNzO8lQjKp/7F4iZ76NG2+AeR977g9H7qR745Hv3QDywKrANplGgQ7uwtqirAyiiLY8PRv6bi/T8TxrZn/xmd5j8feg9dRUq5bBC/dfciC82PBO0z667/FVZVJbhjsHbd8rtNQvmbwopz+G/rsCMn1vr39lTEv5XsPU0gINr8GCGbyFBeMQID+GfhbfrTSOyizh4r9dRKKk8Zk9i/XRoIx6/VAlYg0dTVYXmIqt0+7Zh81H1QR7rse0O7R5lUMf+tgffWJOo8+YqvF2g8pfG4aY8pnF/v68uTP7leOVia/4+DFhRC51zqhTG8XT1QhtAVPmjyV+lNTILcxIMj+FrD4dJGbpPsFNHceN72v1fvz7IAcTOwHHKJx2+Sz54ODbtMVj6LccU9i/dpq9CqccdzIxd5pvr8dmSKSjIOzOwefR1Rc/itd2fo2yKaUxiwW7dkBqwc954Pe3VuH1RGf6hv+DR9WN1UerL9eWLHdqI//PzBfgvwwprsWmsXw/aAftfssMjUBenGvHligcCz7jopv/A2gathqzG5K48Jjy0nLR3uLZ9B/S/bxU+1ctf85zlfYeXolombq7H9vl36xt/52PwzBX4WLfhvfMs6VfWalkH/m05f2WABkhajHmojcAbUPVkgV7/Pgwa9QQWfliDLzZMagEIJdjUJN8nFJKqLJl0JDwCQvUGD8OFRQPKHzqrBeGpCD2wf+kVIWnFUxUaWBo34gnxA/h8Ch5NqHpcGpgSvtlDKnDtXxoEj+ZavDcx2/YM8bSe/8E1uF+cDZ/PbXms8Ah9X1WWo2sLjOcO3iAJ0YSaZ0xAKOMSM7dp3ktFiZHegIBDfTrlb+SloNMiPOZqxu+Qv8or0lFNz5qAzyxPI7hukg8eLQogeRrMMMh9b2Jklr6Zc9hh0IvaWBnhQKWEra7r8DBgouBRi83/SzNGZVAh8HCsQz2/Y2VYEPCy3JbHAg+H/FVZrJ7N3BqLIxHu1JKXAQ/Ld0qwTvmra5HuU2nUcdwWw33D8epNKH260PBAVBrno4JtLd75VSgMne9JHq0monyER1hjb7nhlWitBhO+kYJhEJy/gkNL8FDXfVAG5QoeBrzclic94CEDpjK4fcBkSABrTVXLIwZMOT0brFfOthguc3ijD600lVbGDAL/OfSUKo151I3VMN7gfKP1PLzBQ/hXa/EHw5NxWx6v8AgOGge/t/lZwRgO9alA6QTqSPeZ9W8+R/suHzIutfzDvdpMlmzIQ2rIGJq2pFIm4PSstT7pecTiedyrLxY6VYt3hrfkyhbira811liDhKoxjOClEZMI9gyCPRN3nkfO6gPaw/cs1Kd23ZbHPTyUwUcbI4gEAZVXRHjULDOmrVW9RnOUM2ZrvpXV4ww6oQK/nJ61dbaERwzwsAYd0bgL659S42etVwuebbl5vT7FoM8+aDMz9tkWM5gaAzwOvosnxw4NGJLw34L736jVp1ZV8FXrWd2Vxz08xGw9SIsm1G95AZOHXmITX7Bhe4bHVD34CussVrD3ID+/jg+++gSb58/C727op5dFttUSbA9Mf5vT3tayqelZJ+hb02XaOeEREzx8EKNfM6Ypta7d+q+9J5M93Drd+7CmUuf/rFxkWfcQAzxUhkFH2Wv7z+1oGLC78riHh4wvKI8hqCj6x6D6iTBrovJx8jx8vkmGVxf8HHt6NVQLTqV9lvUfGvjWp2ePlWGOx+n8dIUK4REjPKQwxDXTsLTiEBqaTVGePOK8wlT4CzH73Zoo0sYPHnL155bnb7OBQwk6+vJ4gYfs7R1WsBrVFC94aG3w8p7v0CRX4lr+s8MjH6OeXBdYeWtNF66tZB1lr9DWnkQ79FL1mglHwiMO8EgWoURy+5OljKlVDuXRcHrWqd0ID8LDGMY4CSSTvzNiNtsfdfTaMrlu5LsTHoQH4ZFGGmhNoBEeaSQcDlucZlj4XaKAQnikETwSJRLmSwA5aYDwIDw4bKEGPGkgieBBujvRnd9RF8mqAVY6nA0AAA1hSURBVMKDvY6nXidZBc1ytR5sCQ/Cg/CgBjxpgPCgcDwJhz186/XwyVrXhAfhQXhQA540QHhQOJ6Ek6y9IcvVeh4R4UF4EB7UgCcNEB4UjifhsIdvvR4+Weua8CA8CA9qwJMGCA8Kx5NwkrU3ZLlazyMiPAgPwoMa8KQBwoPC8SQc9vCt18Mna10nETz0P7vn8Gf3k7Xy7OXS/wK3sbUBxWWvH9ZHutUH4RE3z4PwSDfj4PtEBj7hQXhw2BI3DUQ2tnSDEeERN+HQ80g34+D7RIYh4UF40POImwYiG1tUMOrUC4sveQh1eUVYn+T7xBAecRMOPY+ojCNu9R0HQ03CspzzowLU+adr/3e+AjedfW7Swp3wiJuAUhce2paUVag/csLcLulUM45Xr8Oi312YtOJVsBKz16H28AmgcmHSl1WVOeyRnoeXXoFTtWEFFTfAhbaLGL0AH3xlMiPkLAWmzvlX40PbtTW0RM8jboaZip7HKCz/u46L5np8tuQRjBoiAr33RTfdjuKlf8WBj19K+t6c8CA88InUcQr0dM5UTz14iMW7dHLUYtPY7lFCwmHv2eZG1G75Ex7pr4FH1U8ko3bauFqll/vLigdWofzAScMRkvvtri3qapRRpTUShDmx71WrGVnvqatQKYc56r/mRnyx4RnLJuOmMWrl1PbU1cr0rboLwWVS7x39sRde7TfDjHGoWId+DBcwzek8EC/1vAfVl+qxkQGTsTP71ygRWUb9RF8G813d3kPPI2M9j3zMrdHtoGxqlKIbhZLKY4bxhJwc2ojHLzUBYhi4Q4cQCR7f76vDNyGZA2guxysXa/kbeTuls3wXDI8BK2px3HLdenq6emEIQFQ5D39a0WKZ3Bqfz+ceHh3PG4KP/MXOwDl/MMac0T7KtvQODfWehEe84WFVo3F+At8Z59GcuE1v321eNW7ko+4poQlVj5sGH+kesWC3bngN2DlvPAryzoTPdzVuX1SGf+gduXU3ecPAXcJDqyHtGde274D+963Cp3r+Nc+FljXSc6zvI4aXolpm3lyP7fPvhszb58vH4Jkr8PFh7al759nzV/AIXG3chfVPFWr3jZ+P7Ue1e5zKZH2u2/PRuRMCcHDyPNS1StENQzrI8vvg63Q+7sz+Bd7vfBXh4baykyO9MkZNUPZ/3cLAbXov8NAD1KjHtjvsBuNcn8OwuE57q/1Lrwjp3cRTFRpYLL/tiWTUyiitnoGRHg0of+gs2zNU+qNrC2zfy7Ia9zlAyvougzdIQjSh5pnQ9xUzt2meRUWJLX/13NPVy3HfQPt96tr+pfbvrc/0cq4A4QSPibl/DIClUrRHTsfYvQcv5VP30POIt+dhMR5Vycl5dAuPF7H1tIRHFUodFy/NxaYm+/VIRq0MzxEeDhBwSq/qNdJzVBp5NIZpdrLbPwU9Wz033oCwliv4PBI8OnS5HuWX67GOLiOxTPTCiHbn2IAXnF+iPhMeGQsPBQPZy0fTc+qwCQtH5XmZcIlk1MooCY9Q7yESPCQIemT/FKUXTrLHPbrcwIApZ1tCxZSYnqMQb32tdbrWOEX4ZylPxYSDPW2qeB7uhngKcsnieVjrPKdTT0zMvg6bek/TQJI3DkscvcLEaIqeR8Z6Hj7c+J4eJWyuwtsFLXkfJmyCg4pS0EYw9eAa3C/ODrjRoliPI+x7EyOzTNdajH7NCIDG1fOoWQb/uR3DuvAKBNHBUjM4dU8ywsMKkjv1IGulMOvZej0R54RHBsNDDDeNGM212D5/omWRWBFmralEw8eLDWO8eb2CjTZb4TTbYg2mins3Y3/AuWnAf//7NfCfK2c2/oK9liUWcYHHVB1SsM4Chfa2YrYe1EUT6re8gMlDLzHeLZxxeYbHDy/HO/2lR/AgKkUfXB2Y2Qktk9NzIw1bHssZj9WiD+7K6mAETKUH8kDufQHvYys9j+gq2ani2+671FskJutKzjL8/Xt7zND2yRJAFP5ZWKcPdWxp9A//rFwUtE5ikjE0sqdvwpe12pr4eMDD5wv3HMCav5yWVTCwl0d9Ch3SqPRuPY+C3HstMYlb8Zg4o0VQKe1GgsejFz1syVcPnKrFZX2HuXqOep7XIz2PDPY8lGjENdOw7L/+joZmZURyLUQjDv/1bTx3h/2HccJfiNnv1tjSnjxyENUrJujrJuzgl7+deWe/uSoTh3bhgzm/MqZXrcbtNsCqyi+P8h1e3vMdmk5Z3gHB8JBlc1gha9wSP3j4EuR55HTuizndx2Fnv6kmRPoWokzkYUxW6y0QC9S5tQHa9lwPyFl6urYtj90IWi5LanoeLb+X23pg+ljr9M7cogAYnNZ5xJp3PO+n50HPI2p3Op7CY14+dMy+Cqt9g1B05jl6/KIzrsi+CpsuK0Zd3m9Q0orxCy/tQXgQHoRH3DTgzuuSC752DgqKWwTiF5PxvvhB0rcL4RE34XDY4qX3yuh7Ov0IUy4YjfL+evwibyo+7zoSLwlzJiWZ64fwIDySvodLZgPK5LIRHoQH4RE3DbgbtqQ6eJIIHplV8akuHJafeiU82OvQ86AGPGmA8KBwPAmHngc9D8KD8CA8qAFPGiA8KBxPwqHnQc+D8CA8CA9qwJMGCA8Kx5Nw6HnQ8yA8CA/CgxrwpAHCg8LxJBx6HvQ8CA/Cg/CgBjxpgPCgcDwJh54HPY8kggf/GBANkgaZShogPOLmefAn+akkfJY1dlATHoQHhy1x00DsBplKUCM84iYceh6pJHyWNXbQER6ER1p5Hj26Xo/y/GLU9W7dbQgyEUaEB+GRVvAo7mX+TdAdIiut3i3ZAEV4EB4BAxN/PmDsXoKKkpQ1OnoesQ9HooUU4UF4wOcbhsV1AE41ovEYgGNlWJDkf/Y/WoEzXeJgQngQHhDDS1Et/Y6KEjy4Q+492YSqx1va+DpxoqTBp0bdEh6EB9SQRe7HKp7WN4Pe/mjI0EVtB3nyvXsgHliF8gP2bSTXFnW13eM2vVtohN/3RMY9wu8Pm9N5IF7qeQ+qL9XjIwMmY2f2r1HCGImt/VpqD8Ij4+GhD1lQhVW9pbfxIraedh66KBgc+9sefGNGSMyz5iq8XWB6LG7TtyTW4Ote4NHxvCH4yF9s7vOqNomWx/MHY8wZrbvfa/A7pdJnwiPe8DBNyXJ2At9ZPrV86jZ96AbN0YrQGLLsexMjs84JbARdUilLGDp0UTAIlP9UI75c8QAK8s7ERTf9B9Y2aG/luHG1vBRF+mjLHDldL7zab0ZYz0PtQF8pumFIhw5aT9vpfNyZ/Qu83/kqwsOFPRAeLiorsmj1RWKaDQX96xYGbtPHAA99luWr//yJ4bIakAgauhjfN9fivYnZRnpZL8Zw5+Aa3C/ODlxzmz5y/UYbB4gMj4m5fwx4HZWivb4/bLT5Ml1w+xAecYNHKopLDVnqse0Oy3DDr/9IMWjWxYDBnoU2cGiiCr3HbfpgcXr7HBkecqhTfrke6+gyEstEL4xoJz2uVGy/ti0z4ZHBojGGLBZvQTOiYVj+d+k82YcuUcEAVSjVp3ndpo+PAUeGh3xGj+yfovTCSfa4R5cbGDB1aQuEh8sKi4/A27bHUO+gZlmCxlj2j5ahSyQYCP9qbbq3cSOe0Hd4d5telSu2Y8vwUPnndOqJidnXYVPvaRpI8sZhCde3RO2FER4ZC498zK2xc8Lx07EyzInCk8hZra9Q3bMQ/nM72mMeDsMcp/TKqGM7Rg8P63PuzJ2gx0I4hLHWS6RzwiND4SHCxDVMsagAcBN2ParFQwxP4uC7eHLs0AAkhP8W3P9GrT51G2aYE2V689k+DOlWgJ1501E3oBCrXXkDkeHxWM54rBZ9cFdWByNgKj2QB3LvC8Bjq6tnJYcHaa231jwnPDIVHitrNUcjwu9Y7vrouJambKrdk3B0UQA5Tau8DiliAzZRpjeF3xOLA9OtWmBzn7g4alfa54sMj0cvetge67Cu8+jLX+KabdAyGAmPjISHOWSpec6cZQkWjpitrzbVhy7hYHDym93Y8vxtNnBEgke49NbnJ8rzyOncF3O6j8POflNNiPQtRJnIw5gsLhCztkFL54RHRsKj5V7FSTgGPBxiGPFI75SH++964dUBM1CXdwseE2e48Fi81Yn78qXPcwgPwiNqA0s2eIzoXoDVItdcpyFXinYbi+rLp2Of6B/iCWWyoSfi3QkPwiNl4aGWmtdZ4xbyvO8olDDwGXW7egUL4UF4RC2yZPM8jF/HDtRXjPYrwo52V2IKfx0bdZt6BYe8j/AgPFpFaLGIlPcmZ5yE8CA8CA9qwJMGkggeyUlX9npsF2rAWQOEB3sdT70ODcrZoDKpXggPwoPwoAY8aYDwoHA8CSeTeli+q7OXRXgQHoQHNeBJA4QHheNJOOyNnXvjTKoXwoPwIDyoAU8aIDwoHE/CyaQelu/q7GURHoQH4UENeNIA4UHheBIOe2Pn3jiT6oXwIDwID2rAkwYIDwrHk3AyqYfluzp7WYQH4UF4UAOeNEB4UDiehMPe2Lk3zqR6ITwID8KDGvCkAcKDwvEknEzqYfmuzl4W4UF4EB7UgCcN/H8stthEOrfF7QAAAABJRU5ErkJggg==;" parent="1" vertex="1">
          <mxGeometry x="610" y="35" width="210" height="210" as="geometry" />
        </mxCell>
        <mxCell id="GZxss_Ujcgsh2PRrAtwV-1" value="Text" style="text;html=1;align=center;verticalAlign=middle;whiteSpace=wrap;rounded=0;" vertex="1" parent="1">
          <mxGeometry x="160" y="560" width="60" height="30" as="geometry" />
        </mxCell>
        <mxCell id="GZxss_Ujcgsh2PRrAtwV-2" value="&lt;div&gt;Redux is a state management library for JavaScript applications, commonly used with React. Here&#39;s a concise explanation of how Redux works:&lt;/div&gt;&lt;div&gt;&lt;br&gt;&lt;/div&gt;&lt;div&gt;1. Store: Redux uses a single store that holds the entire application state.&lt;/div&gt;&lt;div&gt;&lt;br&gt;&lt;/div&gt;&lt;div&gt;2. Actions: Changes to the state are made by dispatching actions, which are plain JavaScript objects describing what happened.&lt;/div&gt;&lt;div&gt;&lt;br&gt;&lt;/div&gt;&lt;div&gt;3. Reducers: Pure functions that specify how the application&#39;s state changes in response to actions. They take the current state and an action as arguments, and return a new state.&lt;/div&gt;&lt;div&gt;&lt;br&gt;&lt;/div&gt;&lt;div&gt;4. Dispatch: The store has a dispatch method that is used to send actions to update the state.&lt;/div&gt;&lt;div&gt;&lt;br&gt;&lt;/div&gt;&lt;div&gt;5. Subscriptions: Components can subscribe to the store to be notified of state changes.&lt;/div&gt;&lt;div&gt;&lt;br&gt;&lt;/div&gt;&lt;div&gt;The basic flow is:&lt;/div&gt;&lt;div&gt;&lt;br&gt;&lt;/div&gt;&lt;div&gt;Action -&amp;gt; Dispatch -&amp;gt; Reducer -&amp;gt; Updated Store -&amp;gt; UI Update&lt;/div&gt;&lt;div&gt;&lt;br&gt;&lt;/div&gt;&lt;div&gt;Would you like me to elaborate on any specific aspect of Redux or provide a simple code example to illustrate these concepts?&lt;/div&gt;" style="text;html=1;align=left;verticalAlign=middle;whiteSpace=wrap;rounded=0;" vertex="1" parent="1">
          <mxGeometry x="10" y="950" width="830" height="30" as="geometry" />
        </mxCell>
      </root>
    </mxGraphModel>
  </diagram>
</mxfile>
